<svg xmlns="http://www.w3.org/2000/svg" width="880" height="300" viewBox="0 0 880 300"><rect width="100%" height="100%" fill="white"/><line x1="66" y1="252" x2="858" y2="252" stroke="#111827"/>
<line x1="66" y1="16" x2="66" y2="252" stroke="#111827"/>
<line x1="66" y1="193.0" x2="858" y2="193.0" stroke="#059669" stroke-dasharray="7 6"/>
<text x="854.0" y="187.0" font-size="11" text-anchor="end" fill="#111827">threshold 0.10</text>
<polyline points="66.0,54.1 115.5,59.5 165.0,155.5 214.5,136.4 264.0,172.5 313.5,173.9 363.0,179.2 412.5,200.4 462.0,198.9 511.5,172.3 561.0,195.6 610.5,203.4 660.0,201.0 709.5,200.7 759.0,208.9 808.5,206.9 858.0,208.8" fill="none" stroke="#dc2626" stroke-width="3" stroke-linejoin="round" stroke-linecap="round"/>
<polyline points="66.0,212.8 115.5,189.6 165.0,116.7 214.5,142.0 264.0,111.8 313.5,105.1 363.0,113.3 412.5,82.3 462.0,94.7 511.5,121.0 561.0,77.6 610.5,75.3 660.0,72.9 709.5,67.7 759.0,58.9 808.5,50.1 858.0,42.5" fill="none" stroke="#2563eb" stroke-width="3" stroke-linejoin="round" stroke-linecap="round"/>
<text x="440.0" y="291.0" font-size="12" text-anchor="middle" fill="#111827">Episode</text>
<text x="18.0" y="150.0" font-size="12" text-anchor="middle" fill="#111827" transform="rotate(-90 18.0 150.0)">100-episode avg.</text>
<line x1="66.0" y1="252" x2="66.0" y2="258" stroke="#111827"/>
<text x="66.0" y="270.0" font-size="10" text-anchor="middle" fill="#111827">100</text>
<line x1="264.0" y1="252" x2="264.0" y2="258" stroke="#111827"/>
<text x="264.0" y="270.0" font-size="10" text-anchor="middle" fill="#111827">500</text>
<line x1="511.5" y1="252" x2="511.5" y2="258" stroke="#111827"/>
<text x="511.5" y="270.0" font-size="10" text-anchor="middle" fill="#111827">1000</text>
<line x1="759.0" y1="252" x2="759.0" y2="258" stroke="#111827"/>
<text x="759.0" y="270.0" font-size="10" text-anchor="middle" fill="#111827">1500</text>
<line x1="858.0" y1="252" x2="858.0" y2="258" stroke="#111827"/>
<text x="858.0" y="270.0" font-size="10" text-anchor="middle" fill="#111827">1700</text>
<line x1="60" y1="252.0" x2="66" y2="252.0" stroke="#111827"/>
<text x="54.0" y="256.0" font-size="10" text-anchor="end" fill="#111827">0.0</text>
<line x1="60" y1="193.0" x2="66" y2="193.0" stroke="#111827"/>
<text x="54.0" y="197.0" font-size="10" text-anchor="end" fill="#111827">0.1</text>
<line x1="60" y1="134.0" x2="66" y2="134.0" stroke="#111827"/>
<text x="54.0" y="138.0" font-size="10" text-anchor="end" fill="#111827">0.2</text>
<line x1="60" y1="75.0" x2="66" y2="75.0" stroke="#111827"/>
<text x="54.0" y="79.0" font-size="10" text-anchor="end" fill="#111827">0.3</text>
<line x1="60" y1="16.0" x2="66" y2="16.0" stroke="#111827"/>
<text x="54.0" y="20.0" font-size="10" text-anchor="end" fill="#111827">0.4</text>
<rect x="626" y="25" width="210" height="48" fill="white" stroke="#d1d5db"/>
<line x1="642" y1="43" x2="684" y2="43" stroke="#dc2626" stroke-width="3"/>
<text x="694.0" y="47.0" font-size="11" text-anchor="start" fill="#111827">combined error</text>
<line x1="642" y1="61" x2="684" y2="61" stroke="#2563eb" stroke-width="3"/>
<text x="694.0" y="65.0" font-size="11" text-anchor="start" fill="#111827">reward</text></svg>
