<svg xmlns="http://www.w3.org/2000/svg" width="900" height="270" viewBox="0 0 900 270"><rect width="100%" height="100%" fill="white"/><rect x="133.4" y="42.2" width="62" height="129.8" fill="#059669" opacity="0.90"/>
<text x="164.4" y="36.2" font-size="10" text-anchor="middle" fill="#111827">89.5%</text>
<text x="164.4" y="188.0" font-size="9" text-anchor="middle" fill="#111827">Solved %</text>
<rect x="213.4" y="99.7" width="62" height="72.3" fill="#2563eb" opacity="0.90"/>
<text x="244.4" y="93.7" font-size="10" text-anchor="middle" fill="#111827">0.075</text>
<text x="244.4" y="188.0" font-size="9" text-anchor="middle" fill="#111827">Mean err</text>
<rect x="293.4" y="128.5" width="62" height="43.5" fill="#dc2626" opacity="0.90"/>
<text x="324.4" y="122.5" font-size="10" text-anchor="middle" fill="#111827">0.045</text>
<text x="324.4" y="188.0" font-size="9" text-anchor="middle" fill="#111827">Best err</text>
<rect x="373.4" y="148.9" width="62" height="23.1" fill="#6b7280" opacity="0.90"/>
<text x="404.4" y="142.9" font-size="10" text-anchor="middle" fill="#111827">0.024</text>
<text x="404.4" y="188.0" font-size="9" text-anchor="middle" fill="#111827">BF err</text>
<text x="245.0" y="218.0" font-size="13" text-anchor="middle" fill="#111827">648 nm target</text>
<text x="245.0" y="238.0" font-size="10" text-anchor="middle" fill="#111827">DQN: Cu, r=374.7 nm, peak 630 nm</text>
<text x="245.0" y="254.0" font-size="10" text-anchor="middle" fill="#111827">BF: Cu, r=205.2 nm, peak 650 nm</text>
<rect x="523.4" y="107.5" width="62" height="64.5" fill="#059669" opacity="0.90"/>
<text x="554.4" y="101.5" font-size="10" text-anchor="middle" fill="#111827">44.5%</text>
<text x="554.4" y="188.0" font-size="9" text-anchor="middle" fill="#111827">Solved %</text>
<rect x="603.4" y="42.4" width="62" height="129.6" fill="#2563eb" opacity="0.90"/>
<text x="634.4" y="36.4" font-size="10" text-anchor="middle" fill="#111827">0.134</text>
<text x="634.4" y="188.0" font-size="9" text-anchor="middle" fill="#111827">Mean err</text>
<rect x="683.4" y="158.5" width="62" height="13.5" fill="#dc2626" opacity="0.90"/>
<text x="714.4" y="152.5" font-size="10" text-anchor="middle" fill="#111827">0.014</text>
<text x="714.4" y="188.0" font-size="9" text-anchor="middle" fill="#111827">Best err</text>
<rect x="763.4" y="158.5" width="62" height="13.5" fill="#6b7280" opacity="0.90"/>
<text x="794.4" y="152.5" font-size="10" text-anchor="middle" fill="#111827">0.014</text>
<text x="794.4" y="188.0" font-size="9" text-anchor="middle" fill="#111827">BF err</text>
<text x="635.0" y="218.0" font-size="13" text-anchor="middle" fill="#111827">700 nm target</text>
<text x="635.0" y="238.0" font-size="10" text-anchor="middle" fill="#111827">DQN: Si, r=223.7 nm, peak 700 nm</text>
<text x="635.0" y="254.0" font-size="10" text-anchor="middle" fill="#111827">BF: Si, r=223.7 nm, peak 700 nm</text>
<line x1="58" y1="172" x2="860" y2="172" stroke="#111827"/>
<text x="22.0" y="96.0" font-size="11" text-anchor="middle" fill="#111827" transform="rotate(-90 22.0 96.0)">Scaled value</text></svg>
